<svg width="15" height="16" viewBox="0 0 15 16" fill="none" xmlns="http://www.w3.org/2000/svg">
<path fill-rule="evenodd" clip-rule="evenodd" d="M11.0304 2.59774V3.54889H12.5303H12.5316V3.55135C13.0053 3.55258 13.4347 3.74454 13.7448 4.05585C14.0524 4.36469 14.2444 4.79167 14.2456 5.26417H14.2481V5.26663V14.2823V14.2835H14.2456C14.2444 14.756 14.0524 15.1854 13.7411 15.4967C13.4323 15.8044 13.0053 15.9963 12.5328 15.9975V16H12.5303H4.93834H4.93711V15.9975C4.46461 15.9963 4.03395 15.8044 3.72387 15.4931C3.41625 15.1842 3.2243 14.7572 3.22307 14.2847H3.22061V14.2823V12.2631H1.72066H1.71943V12.2606C1.24693 12.2594 0.81627 12.0674 0.506191 11.7561C0.198574 11.4473 0.00662109 11.0203 0.00539063 10.5478H0.00292969V10.5453V2.59774V2.59651H0.00539063C0.00662109 2.12278 0.199805 1.69334 0.509883 1.38327C0.818731 1.07565 1.2457 0.883696 1.7182 0.882466V0.880005H1.72066H9.31266H9.31389V0.882466C9.78762 0.883696 10.2171 1.07565 10.5271 1.38696C10.8347 1.69581 11.0267 2.12278 11.0279 2.59528H11.0304V2.59774ZM9.72856 3.54889V2.59774V2.59528H9.73102C9.73102 2.48331 9.68303 2.37995 9.60674 2.30366C9.53168 2.2286 9.42709 2.18061 9.31512 2.18061V2.18307H9.31389H1.72189H1.71943V2.18061C1.60746 2.18061 1.5041 2.2286 1.42781 2.30489C1.35275 2.37995 1.30477 2.48454 1.30477 2.59651H1.30723V2.59774V10.5453V10.5478H1.30477C1.30477 10.6598 1.35275 10.7631 1.42904 10.8394C1.5041 10.9145 1.60869 10.9625 1.72066 10.9625V10.96H1.72189H3.22184V5.26663V5.2654H3.2243C3.22553 4.79167 3.41871 4.36223 3.72879 4.05215C4.03764 3.74454 4.46461 3.55258 4.93711 3.55135V3.54889H4.93957H9.72856ZM12.945 14.2823V5.26663V5.26417H12.9475C12.9475 5.15219 12.8995 5.04883 12.8232 4.97254C12.7481 4.89749 12.6435 4.8495 12.5316 4.8495V4.85196H12.5303H4.93834H4.93588V4.8495C4.82391 4.8495 4.72055 4.89749 4.64426 4.97378C4.5692 5.04883 4.52121 5.15342 4.52121 5.2654H4.52367V5.26663V14.2823V14.2847H4.52121C4.52121 14.3967 4.5692 14.5001 4.64549 14.5764C4.72055 14.6514 4.82514 14.6994 4.93711 14.6994V14.6969H4.93834H12.5303H12.5328V14.6994C12.6448 14.6994 12.7481 14.6514 12.8244 14.5751C12.8995 14.5001 12.9475 14.3955 12.9475 14.2835H12.945V14.2823Z" fill="white"/>
</svg>
