<svg width="30" height="38" viewBox="0 0 30 38" fill="none" xmlns="http://www.w3.org/2000/svg">
<path d="M14.3335 19.9227H1.98802C1.44236 19.9227 1 19.5096 1 18.9998C1 18.49 1.44236 18.0772 1.98802 18.0772H14.3328L10.3177 13.8256C9.95741 13.4454 9.99544 12.8644 10.4026 12.5281C10.8098 12.1917 11.4318 12.2272 11.7921 12.6075L17.2544 18.3913C17.59 18.7452 17.5798 19.2729 17.2481 19.6156L11.7918 25.3927C11.4315 25.773 10.8095 25.8085 10.4023 25.4721C9.99544 25.1358 9.95741 24.5545 10.3174 24.1743L14.3335 19.9227ZM16.0306 36.9727C15.4698 37.0981 14.9057 36.7796 14.7701 36.2614C14.6345 35.7431 14.9789 35.2213 15.5392 35.0959C16.8884 34.7936 18.0526 34.58 19.1208 34.3846C24.1876 33.4565 26.9051 32.959 26.9051 26.4313V11.0366C26.9051 4.93778 24.0317 4.4412 19.2729 3.61912C18.1334 3.42224 16.897 3.20867 15.5392 2.90398C14.9789 2.77859 14.6345 2.2571 14.7701 1.73854C14.9057 1.22027 15.4698 0.902107 16.0306 1.02721C17.3045 1.31315 18.5292 1.52467 19.6579 1.7195C25.483 2.72614 29 3.33377 29 11.0363V26.4313C29 34.5481 25.6909 35.1539 19.5216 36.2839C18.4237 36.4849 17.2287 36.704 16.0306 36.9727Z" fill="white" stroke="white" stroke-width="0.5"/>
</svg>
